<svg xmlns="http://www.w3.org/2000/svg" viewBox="0 0 220 56" role="img" aria-labelledby="logo-title logo-desc">
  <title id="logo-title">씨앗연대</title>
  <desc id="logo-desc">새싹 심볼과 씨앗연대, SEED CIVIC PARTNERS 워드마크</desc>
  <circle cx="28" cy="28" r="26" fill="#2F6B55"/>
  <g transform="translate(4 4) scale(2)" fill="none" stroke="#FAF7EF" stroke-width="1.5" stroke-linecap="round" stroke-linejoin="round">
    <path d="M7 20h10"/>
    <path d="M10 20c5.5-2.5.8-6.4 3-10"/>
    <path d="M9.5 9.4c1.1.8 1.8 2.2 2.3 3.7-2 .4-3.5.4-4.8-.3-1.2-.6-2.3-1.9-3-4.2 2.8-.5 4.4 0 5.5.8Z"/>
    <path d="M14.1 6a7 7 0 0 0-1.1 4c1.9-.1 3.3-.6 4.3-1.4 1-1 1.6-2.3 1.7-4.6-2.7.1-4 1-4.9 2Z"/>
  </g>
  <text x="66" y="27" fill="#174C3A" font-family="Pretendard, 'Noto Sans KR', Arial, sans-serif" font-size="22" font-weight="800" letter-spacing="0">씨앗연대</text>
  <text x="67" y="43" fill="#656B68" font-family="Pretendard, 'Noto Sans KR', Arial, sans-serif" font-size="8.5" font-weight="700" letter-spacing="1.45">SEED CIVIC PARTNERS</text>
</svg>
